<svg xmlns="http://www.w3.org/2000/svg" width="15.255" height="19.32" viewBox="0 0 15.255 19.32">
  <g id="Group_130459" data-name="Group 130459" transform="translate(-235.372 -1460.4)">
    <g id="Group_130458" data-name="Group 130458">
      <path id="Path_109587" data-name="Path 109587" d="M139.595,12.1a6.441,6.441,0,0,1,9.1,0c2.4,2.4,2.388,6.246-.035,9.137l-4.513,5.384L139.63,21.24c-2.424-2.891-2.438-6.734-.035-9.137Zm-.88,9.9,4.971,5.931a.6.6,0,0,0,.916,0l4.971-5.931a8.762,8.762,0,0,0,2.1-5.431,7.271,7.271,0,0,0-2.131-5.319,7.649,7.649,0,0,0-10.788,0,7.27,7.27,0,0,0-2.132,5.319,8.761,8.761,0,0,0,2.1,5.431Zm5.43-7.892a2.489,2.489,0,1,0,1.757.729A2.485,2.485,0,0,0,144.144,14.116Zm0,6.167a3.685,3.685,0,1,0-2.6-1.079A3.682,3.682,0,0,0,144.144,20.283Z" transform="translate(98.856 1451.468)" fill-rule="evenodd"/>
      <path id="Path_109587_-_Outline" data-name="Path 109587 - Outline" d="M144.144,8.932a7.7,7.7,0,0,1,5.465,2.255,7.371,7.371,0,0,1,2.16,5.392,8.892,8.892,0,0,1-2.12,5.493L144.678,28a.7.7,0,0,1-1.069,0l-4.971-5.93a8.891,8.891,0,0,1-2.12-5.493,7.37,7.37,0,0,1,2.161-5.392A7.7,7.7,0,0,1,144.144,8.932Zm0,19.12a.5.5,0,0,0,.381-.178l4.971-5.931a8.691,8.691,0,0,0,2.073-5.369,7.171,7.171,0,0,0-2.1-5.245,7.549,7.549,0,0,0-10.647,0,7.17,7.17,0,0,0-2.1,5.245,8.69,8.69,0,0,0,2.043,5.333h0l.03.036,4.971,5.931A.5.5,0,0,0,144.144,28.052Zm0-17.93a6.5,6.5,0,0,1,4.62,1.91c2.441,2.441,2.428,6.34-.029,9.272l-4.59,5.476-4.59-5.476c-2.458-2.932-2.47-6.831-.029-9.272A6.5,6.5,0,0,1,144.144,10.121Zm0,16.347,4.437-5.293c2.39-2.85,2.407-6.636.041-9a6.341,6.341,0,0,0-8.957,0c-2.366,2.365-2.348,6.151.042,9Zm0-13.648a3.781,3.781,0,1,1-2.674,1.108A3.757,3.757,0,0,1,144.144,12.821Zm0,7.362a3.585,3.585,0,1,0-2.531-1.05A3.558,3.558,0,0,0,144.144,20.183Zm0-6.167a2.586,2.586,0,1,1-1.828.757A2.573,2.573,0,0,1,144.144,14.016Zm0,4.971a2.386,2.386,0,1,0-1.687-.7A2.37,2.37,0,0,0,144.144,18.987Z" transform="translate(98.856 1451.468)"/>
    </g>
  </g>
</svg>
