<svg xmlns="http://www.w3.org/2000/svg" xmlns:xlink="http://www.w3.org/1999/xlink" width="101.969" height="47.27" viewBox="0 0 101.969 47.27">
  <defs>
    <clipPath id="clip-path">
      <rect id="Rectangle_37419" data-name="Rectangle 37419" width="101.969" height="47.27" fill="none"/>
    </clipPath>
  </defs>
  <g id="site_logo" transform="translate(0 0)">
    <g id="Group_128542" data-name="Group 128542" transform="translate(0 0)" clip-path="url(#clip-path)">
      <path id="Path_109468" data-name="Path 109468" d="M.142.042H.635c1.768,0,3.016.4,3.74,1.2A7.62,7.62,0,0,1,8.823.042h.239q5.347,0,6.913,1.257a10.3,10.3,0,0,1,2.578,2.471,10.669,10.669,0,0,1,1.379,4.336l-.083.509V17.5a7.427,7.427,0,0,1-4.04,6.78A10.939,10.939,0,0,1,10.28,25.57H5.1v7.851l-.151.145H3.644C1.51,33.566,0,32.417,0,30.063V.184ZM5.1,8.922V20.864l3.659.061H9.883l.323.084c2.1,0,3.551-.7,4.209-2.164a6.61,6.61,0,0,0,.416-2.69V8.616q0-3.951-4.465-3.948h-.238c-2.666,0-4.3.733-4.782,2.235A6.985,6.985,0,0,0,5.1,8.922M36.106,0h10.27l.169.162V25.319l-.169.16H45.289a4.234,4.234,0,0,1-3.217-1.243,10.378,10.378,0,0,1-5.458,1.243h-10.5l-.183-.16V8.594q0-6.675,7.141-8.37A17.587,17.587,0,0,1,36.106,0M31.235,8.677v12h5.2q4.908,0,4.9-4.483V4.888H35.175a3.8,3.8,0,0,0-3.691,2.078,7.045,7.045,0,0,0-.249,1.711M52.631,0h.239a5.394,5.394,0,0,1,3.968,1.244A9.1,9.1,0,0,1,61.612.085h2.55c.157.048.244.205.244.468v.768q0,3.162-4.2,3.715c-1.342.629-2.02,1.3-2.02,2.015q-.412.238-.508,3.334V25.319l-.167.16H56.331a3.622,3.622,0,0,1-3.787-2.627l-.079-.633V.162ZM70.357,0h1.088c1.908,0,3.174.745,3.771,2.241A5.012,5.012,0,0,1,75.5,3.873V25.319l-.183.16h-.754c-2.082,0-3.427-.721-4.055-2.16a4.3,4.3,0,0,1-.327-1.786V.162ZM90.376.085h11.443l.15.16V1.712q0,2.115-2.673,3.02l-1.437.156H90.536a4.262,4.262,0,0,0-3.778,2.164l-.072.38c0,.914.865,1.71,2.591,2.406q0,.223,4.623.307a12.517,12.517,0,0,1,5.069,2.016c2,1.895,3,3.808,3,5.718q0,4.037-5.19,6.833a10.462,10.462,0,0,1-3.793.768H81.553l-.175-.16V24.161c0-2.024,1.312-3.188,3.963-3.485h6.723c2.239,0,3.755-.778,4.532-2.321l.09-.613c0-.813-.753-1.646-2.283-2.486a22.566,22.566,0,0,0-5.125-.469,11.233,11.233,0,0,1-4.963-2.08,7.148,7.148,0,0,1-2.7-5.414q0-3.732,4.8-6.351A10.137,10.137,0,0,1,90.376.085" transform="translate(0 0)" fill="#fff"/>
      <path id="Path_109469" data-name="Path 109469" d="M37.176,62.808V61.475H42.2a3.933,3.933,0,0,1-.736,2.378A3.983,3.983,0,0,1,40,65.089a4.123,4.123,0,0,1-1.884.454,4.065,4.065,0,0,1-2.924-1.167,3.907,3.907,0,0,1-.005-5.653,4,4,0,0,1,2.895-1.178,4.16,4.16,0,0,1,2.3.689,3.416,3.416,0,0,1,1.436,1.712h-1.7a2.367,2.367,0,0,0-2.068-1.068,2.491,2.491,0,0,0-1.9.793,2.668,2.668,0,0,0-.746,1.9,2.515,2.515,0,0,0,.787,1.878,2.675,2.675,0,0,0,1.936.764,2.462,2.462,0,0,0,1.339-.379,2.6,2.6,0,0,0,.936-1.022Z" transform="translate(-10.797 -18.284)" fill="#fff"/>
      <path id="Path_109470" data-name="Path 109470" d="M57.821,61.441h.908a1.5,1.5,0,0,0,1.01-.317,1.081,1.081,0,0,0,.368-.867,1.048,1.048,0,0,0-.373-.844,1.486,1.486,0,0,0-.993-.317h-.92ZM56.4,65.462v-7.7h2.355a2.893,2.893,0,0,1,1.965.586,2.28,2.28,0,0,1,.816,1.792,2.406,2.406,0,0,1-.8,1.9,2.718,2.718,0,0,1-1.206.574l2.08,2.85H59.878l-2.057-2.941v2.941Z" transform="translate(-17.918 -18.353)" fill="#fff"/>
      <path id="Path_109471" data-name="Path 109471" d="M77.758,58.877a2.493,2.493,0,0,0-1.839.781,2.563,2.563,0,0,0-.77,1.862,2.623,2.623,0,0,0,.764,1.907,2.5,2.5,0,0,0,1.856.781,2.452,2.452,0,0,0,1.826-.781,2.72,2.72,0,0,0,0-3.769,2.468,2.468,0,0,0-1.838-.781m0-1.333A3.884,3.884,0,0,1,80.6,58.716a3.981,3.981,0,0,1,0,5.653A4.025,4.025,0,0,1,73.725,61.5a3.772,3.772,0,0,1,1.189-2.78,3.909,3.909,0,0,1,2.844-1.171" transform="translate(-23.424 -18.283)" fill="#fff"/>
      <path id="Path_109472" data-name="Path 109472" d="M95.886,57.764h1.425v4.894a1.98,1.98,0,0,0,.242,1.081,1.2,1.2,0,0,0,1.08.551,1.234,1.234,0,0,0,1.092-.54,1.974,1.974,0,0,0,.241-1.092V57.764h1.425v4.894a3.061,3.061,0,0,1-.529,1.919,2.65,2.65,0,0,1-2.207,1.045,2.915,2.915,0,0,1-1.321-.31,2.682,2.682,0,0,1-1-.839,3.111,3.111,0,0,1-.448-1.816Z" transform="translate(-30.465 -18.353)" fill="#fff"/>
      <path id="Path_109473" data-name="Path 109473" d="M116.1,61.188h.46a2.965,2.965,0,0,0,.942-.108.974.974,0,0,0,.482-.38,1.027,1.027,0,0,0,.184-.592.885.885,0,0,0-.655-.919,3.111,3.111,0,0,0-.9-.092H116.1Zm-1.425,4.275v-7.7h1.942a7.758,7.758,0,0,1,1.011.046A2.237,2.237,0,0,1,119.6,60.1a2.353,2.353,0,0,1-1.023,2.057,2.066,2.066,0,0,1-.954.333,9.561,9.561,0,0,1-1.022.035H116.1v2.941Z" transform="translate(-36.436 -18.353)" fill="#fff"/>
    </g>
  </g>
</svg>
